<svg xmlns="http://www.w3.org/2000/svg" width="200" height="200" fill="none" viewBox="0 0 200 200"><path fill="url(#a)" d="M0 0h200v200H0z"/><path fill="#fff" fill-rule="evenodd" d="M101.301 115.156c-7.629 0-14.168-6.539-14.168-14.531s6.176-14.531 14.168-14.531c7.628 0 14.167 6.539 14.167 14.531s-6.175 14.531-14.167 14.531m-41.413 0c-7.629 0-14.168-6.539-14.168-14.531s6.176-14.531 14.168-14.531c7.628 0 14.167 6.539 14.167 14.531s-6.175 14.531-14.167 14.531m94.45-35.964c1.817-2.18 5.086-2.543 7.266-.727 2.179 1.453 2.906 4.723 1.09 6.902l-13.078 16.348 13.078 16.347c1.816 2.179 1.089 5.086-1.09 6.902-2.18 1.453-5.449 1.09-7.266-.727l-11.261-13.804-11.261 13.804c-1.817 2.18-5.086 2.543-7.266.727-2.18-1.453-2.906-4.723-1.09-6.902l13.078-16.347-12.714-16.71c-1.817-2.18-1.09-5.087 1.089-6.903 2.18-1.453 5.449-1.09 7.266.727l11.261 14.167zM41.361 55.942c2.543 0 4.723 2.18 4.723 4.723V81.37c3.995-2.906 8.718-4.722 14.167-4.722 9.082 0 16.71 5.086 20.707 13.078 3.996-7.63 11.624-13.078 20.706-13.078 13.078 0 23.249 10.898 23.249 24.339s-10.535 24.339-23.249 24.339c-9.082 0-16.71-5.086-20.707-13.078-3.995 7.629-11.624 13.078-20.706 13.078-12.715 0-23.25-10.535-23.25-23.976V60.665c-.363-2.543 1.817-4.723 4.36-4.723" clip-rule="evenodd"/><defs><linearGradient id="a" x1="100" x2="100" y1="0" y2="200" gradientUnits="userSpaceOnUse"><stop stop-color="#2486fc"/><stop offset="1" stop-color="#0061d5"/></linearGradient></defs></svg>